<?xml version="1.0" encoding="UTF-8" standalone="no"?>
<svg
   id="Layer_1"
   data-name="Layer 1"
   viewBox="0 0 146.36621 138.7505"
   version="1.1"
   sodipodi:docname="snowflake.svg"
   width="146.36621"
   height="138.7505"
   inkscape:version="1.3 (0e150ed6c4, 2023-07-21)"
   xmlns:inkscape="http://www.inkscape.org/namespaces/inkscape"
   xmlns:sodipodi="http://sodipodi.sourceforge.net/DTD/sodipodi-0.dtd"
   xmlns="http://www.w3.org/2000/svg"
   xmlns:svg="http://www.w3.org/2000/svg">
  <sodipodi:namedview
     id="namedview1"
     pagecolor="#ffffff"
     bordercolor="#000000"
     borderopacity="0.25"
     inkscape:showpageshadow="2"
     inkscape:pageopacity="0.0"
     inkscape:pagecheckerboard="0"
     inkscape:deskcolor="#d1d1d1"
     inkscape:zoom="8.4291461"
     inkscape:cx="73.198399"
     inkscape:cy="69.34273"
     inkscape:window-width="2560"
     inkscape:window-height="1369"
     inkscape:window-x="1912"
     inkscape:window-y="-8"
     inkscape:window-maximized="1"
     inkscape:current-layer="Layer_1" />
  <defs
     id="defs1">
    <style
       id="style1">&#10;   .cls-1{fill:#29b5e8;fill-rule:evenodd;}&#10;  </style>
  </defs>
  <path
     class="cls-1"
     d="m 134.80621,59.885254 -16.47,9.49 16.47,9.41 a 8.6626916,8.6626916 0 1 1 -8.67,15 l -29.51,-17 a 8.68,8.68 0 0 1 -4.33,-7.75 8.48,8.48 0 0 1 0.31,-2 8.68,8.68 0 0 1 4,-5.19 l 29.51,-16.94 a 8.69,8.69 0 0 1 11.88,3.19 8.58,8.58 0 0 1 -3.19,11.79 z m -15.59,45.999996 -29.5,-16.969996 a 8.72,8.72 0 0 0 -13.06,7.48 v 33.899996 a 8.69,8.69 0 0 0 17.37,0 v -19 l 16.51,9.49 a 8.6651947,8.6651947 0 1 0 8.68,-15 z m -34,-33.159996 -12.3,12.15 a 2.44,2.44 0 0 1 -1.54,0.65 h -3.61 a 2.51,2.51 0 0 1 -1.54,-0.65 l -12.23,-12.19 a 2.45,2.45 0 0 1 -0.64,-1.52 v -3.6 a 2.5,2.5 0 0 1 0.64,-1.53 l 12.23,-12.19 a 2.5,2.5 0 0 1 1.54,-0.64 h 3.61 a 2.45,2.45 0 0 1 1.54,0.64 l 12.26,12.19 a 2.49,2.49 0 0 1 0.63,1.53 v 3.6 a 2.44,2.44 0 0 1 -0.63,1.52 z m -9.8,-3.38 a 2.59,2.59 0 0 0 -0.69,-1.56 l -3.55,-3.51 a 2.51,2.51 0 0 0 -1.54,-0.64 h -0.13 a 2.46,2.46 0 0 0 -1.53,0.64 l -3.55,3.51 a 2.51,2.51 0 0 0 -0.63,1.55 v 0.13 a 2.41,2.41 0 0 0 0.63,1.52 l 3.57,3.5 a 2.48,2.48 0 0 0 1.53,0.64 h 0.13 a 2.51,2.51 0 0 0 1.54,-0.64 l 3.55,-3.53 a 2.49,2.49 0 0 0 0.65,-1.52 z m -55.49,-36.48 29.51,16.92 a 8.73,8.73 0 0 0 13.07,-7.49 V 8.4252543 a 8.69,8.69 0 0 0 -17.37,0 V 27.425254 l -16.53,-9.5 a 8.6651947,8.6651947 0 1 0 -8.68,15 z m 64.76,18.08 a 8.64,8.64 0 0 0 5,-1.13 l 29.5,-17 a 8.6651947,8.6651947 0 1 0 -8.68,-15 l -16.51,9.58 V 8.3952543 a 8.69,8.69 0 0 0 -17.37,0 V 42.295254 a 8.66,8.66 0 0 0 8.06,8.65 z m -30.21,36.84 a 8.58,8.58 0 0 0 -5,1.13 l -29.55,16.929996 a 8.6651947,8.6651947 0 1 0 8.68,15 l 16.53,-9.49 v 19 a 8.69,8.69 0 0 0 17.37,0 V 96.395254 a 8.65,8.65 0 0 0 -8.03,-8.61 z m -8,-15.87 a 8.61,8.61 0 0 0 -4,-10 l -29.48,-16.99 a 8.69,8.69 0 0 0 -11.8299998,3.17 8.59,8.59 0 0 0 3.18,11.79 l 16.4699998,9.49 -16.4699998,9.41 a 8.6576917,8.6576917 0 1 0 8.6499998,15 l 29.48,-17 a 8.59,8.59 0 0 0 3.99,-4.87 z m 93.15,-56.22 h -1.33 v 1.63 h 1.32 c 0.61,0 1,-0.28 1,-0.8 0,-0.52 -0.36,-0.83 -1,-0.83 z m -2.94,-1.5 h 3 c 1.62,0 2.7,0.89 2.7,2.27 a 2.16,2.16 0 0 1 -1.08,1.9 l 1.17,1.68 v 0.34 h -1.69 l -1.17,-1.6 h -1.32 v 1.6 h -1.62 z m 8.3,3.22 a 5.48,5.48 0 0 0 -5.58,-5.83 c -3.31,0 -5.51,2.39 -5.51,5.83 0,3.28 2.2,5.82 5.51,5.82 a 5.47,5.47 0 0 0 5.59,-5.82 z m 1.38,0 c 0,3.89 -2.6,7.14 -7,7.14 -4.4,0 -6.89,-3.28 -6.89,-7.14 0,-3.86 2.57,-7.14 6.89,-7.14 4.32,0 6.99,3.24 6.99,7.14 z"
     id="path1" />
</svg>
