<?xml version="1.0" encoding="UTF-8" standalone="no"?>
<!-- Created with Inkscape (http://www.inkscape.org/) -->

<svg
   width="33.30386mm"
   height="13.229167mm"
   viewBox="0 0 33.303859 13.229167"
   version="1.1"
   id="svg1"
   sodipodi:docname="icon.svg"
   inkscape:version="1.3 (0e150ed6c4, 2023-07-21)"
   inkscape:export-filename="icon.png"
   inkscape:export-xdpi="96"
   inkscape:export-ydpi="96"
   xmlns:inkscape="http://www.inkscape.org/namespaces/inkscape"
   xmlns:sodipodi="http://sodipodi.sourceforge.net/DTD/sodipodi-0.dtd"
   xmlns="http://www.w3.org/2000/svg"
   xmlns:svg="http://www.w3.org/2000/svg">
  <sodipodi:namedview
     id="namedview1"
     pagecolor="#ffffff"
     bordercolor="#000000"
     borderopacity="0.25"
     inkscape:showpageshadow="2"
     inkscape:pageopacity="0.0"
     inkscape:pagecheckerboard="0"
     inkscape:deskcolor="#d1d1d1"
     inkscape:document-units="mm"
     inkscape:zoom="8"
     inkscape:cx="46.5"
     inkscape:cy="14.5625"
     inkscape:window-width="2560"
     inkscape:window-height="1369"
     inkscape:window-x="1912"
     inkscape:window-y="-8"
     inkscape:window-maximized="1"
     inkscape:current-layer="layer1" />
  <defs
     id="defs1">
    <inkscape:path-effect
       effect="fillet_chamfer"
       id="path-effect23"
       is_visible="true"
       lpeversion="1"
       nodesatellites_param="F,0,0,1,0,0,0,1 @ F,0,1,1,0,1.0583333,0,1 @ F,0,0,1,0,0,0,1 @ F,0,0,1,0,0,0,1 @ F,0,0,1,0,0,0,1 @ F,0,0,1,0,0,0,1 @ F,0,0,1,0,0,0,1 @ F,0,0,1,0,0,0,1 @ F,0,0,1,0,0,0,1 @ F,0,0,1,0,0,0,1 @ F,0,0,1,0,0,0,1 @ F,0,0,1,0,0,0,1 @ F,0,0,1,0,0,0,1 @ F,0,0,1,0,0,0,1"
       radius="4"
       unit="px"
       method="auto"
       mode="F"
       chamfer_steps="1"
       flexible="false"
       use_knot_distance="true"
       apply_no_radius="true"
       apply_with_radius="true"
       only_selected="true"
       hide_knots="false" />
    <inkscape:path-effect
       effect="fillet_chamfer"
       id="path-effect22"
       is_visible="true"
       lpeversion="1"
       nodesatellites_param="F,0,0,1,0,1.0583333,0,1 @ F,0,1,1,0,1.0583333,0,1 @ F,0,0,1,0,1.0583333,0,1 @ F,0,0,1,0,1.0583333,0,1 @ F,0,0,1,0,1.0583333,0,1 @ F,0,0,1,0,1.0583333,0,1 @ F,0,0,1,0,1.0583333,0,1 @ F,0,0,1,0,1.0583333,0,1 @ F,0,0,1,0,1.0583333,0,1 @ F,0,0,1,0,1.0583333,0,1 @ F,0,0,1,0,1.0583333,0,1 @ F,0,0,1,0,1.0583333,0,1 @ F,0,0,1,0,1.0583333,0,1 @ F,0,0,1,0,1.0583333,0,1"
       radius="4"
       unit="px"
       method="auto"
       mode="F"
       chamfer_steps="1"
       flexible="false"
       use_knot_distance="true"
       apply_no_radius="true"
       apply_with_radius="true"
       only_selected="true"
       hide_knots="false" />
    <inkscape:path-effect
       effect="fillet_chamfer"
       id="path-effect21"
       is_visible="true"
       lpeversion="1"
       nodesatellites_param="F,0,1,1,0,1.0583333,0,1 @ F,0,1,1,0,0,0,1 @ F,0,1,1,0,0,0,1 @ F,0,0,1,0,0,0,1 @ F,0,0,1,0,0,0,1 @ F,0,0,1,0,0,0,1 @ F,0,0,1,0,0,0,1 @ F,0,0,1,0,0,0,1 @ F,0,0,1,0,0,0,1 @ F,0,0,1,0,0,0,1 @ F,0,0,1,0,0,0,1 @ F,0,0,1,0,0,0,1 @ F,0,0,1,0,0,0,1"
       radius="4"
       unit="px"
       method="auto"
       mode="F"
       chamfer_steps="1"
       flexible="false"
       use_knot_distance="true"
       apply_no_radius="true"
       apply_with_radius="true"
       only_selected="true"
       hide_knots="false" />
    <inkscape:path-effect
       effect="fillet_chamfer"
       id="path-effect20"
       is_visible="true"
       lpeversion="1"
       nodesatellites_param="F,0,0,1,0,0,0,1 @ F,0,0,1,0,0,0,1 @ F,0,0,1,0,0,0,1 @ F,0,0,1,0,0,0,1 @ F,0,0,1,0,0,0,1 @ F,0,0,1,0,0,0,1 @ F,0,0,1,0,0,0,1 @ F,0,0,1,0,0,0,1 @ F,0,0,1,0,0,0,1 @ F,0,0,1,0,0,0,1 @ F,0,0,1,0,0,0,1 @ F,0,0,1,0,0,0,1 @ F,0,0,1,0,0,0,1 @ F,0,0,1,0,0,0,1"
       radius="0"
       unit="px"
       method="auto"
       mode="F"
       chamfer_steps="1"
       flexible="false"
       use_knot_distance="true"
       apply_no_radius="true"
       apply_with_radius="true"
       only_selected="false"
       hide_knots="false" />
    <inkscape:path-effect
       effect="fillet_chamfer"
       id="path-effect19"
       is_visible="true"
       lpeversion="1"
       nodesatellites_param="F,0,0,1,0,0,0,1 @ F,0,0,1,0,0,0,1 @ F,0,0,1,0,0,0,1 @ F,0,0,1,0,0,0,1 @ F,0,0,1,0,0,0,1 @ F,0,0,1,0,0,0,1 @ F,0,0,1,0,0,0,1 @ F,0,0,1,0,0,0,1 @ F,0,0,1,0,0,0,1 @ F,0,0,1,0,0,0,1 @ F,0,0,1,0,0,0,1 @ F,0,0,1,0,0,0,1 @ F,0,0,1,0,0,0,1 @ F,0,0,1,0,0,0,1"
       radius="0"
       unit="px"
       method="auto"
       mode="F"
       chamfer_steps="1"
       flexible="false"
       use_knot_distance="true"
       apply_no_radius="true"
       apply_with_radius="true"
       only_selected="false"
       hide_knots="false" />
    <inkscape:path-effect
       effect="fillet_chamfer"
       id="path-effect7"
       is_visible="true"
       lpeversion="1"
       nodesatellites_param="F,0,0,1,0,1.0583333,0,1 @ F,0,0,1,0,1.0583333,0,1 @ F,0,0,1,0,1.0583333,0,1 @ F,0,0,1,0,1.0583333,0,1 @ F,0,0,1,0,1.0583333,0,1 @ F,0,0,1,0,1.0583333,0,1"
       radius="4"
       unit="px"
       method="auto"
       mode="F"
       chamfer_steps="1"
       flexible="false"
       use_knot_distance="true"
       apply_no_radius="true"
       apply_with_radius="true"
       only_selected="false"
       hide_knots="false" />
    <inkscape:path-effect
       effect="fillet_chamfer"
       id="path-effect7-1"
       is_visible="true"
       lpeversion="1"
       nodesatellites_param="F,0,0,1,0,1.0583333,0,1 @ F,0,0,1,0,1.0583333,0,1 @ F,0,0,1,0,1.0583333,0,1 @ F,0,0,1,0,1.0583333,0,1 @ F,0,0,1,0,1.0583333,0,1 @ F,0,0,1,0,1.0583333,0,1"
       radius="4"
       unit="px"
       method="auto"
       mode="F"
       chamfer_steps="1"
       flexible="false"
       use_knot_distance="true"
       apply_no_radius="true"
       apply_with_radius="true"
       only_selected="false"
       hide_knots="false" />
    <inkscape:path-effect
       effect="fillet_chamfer"
       id="path-effect7-1-3"
       is_visible="true"
       lpeversion="1"
       nodesatellites_param="F,0,0,1,0,1.0583333,0,1 @ F,0,0,1,0,1.0583333,0,1 @ F,0,0,1,0,1.0583333,0,1 @ F,0,0,1,0,1.0583333,0,1 @ F,0,0,1,0,1.0583333,0,1 @ F,0,0,1,0,1.0583333,0,1"
       radius="4"
       unit="px"
       method="auto"
       mode="F"
       chamfer_steps="1"
       flexible="false"
       use_knot_distance="true"
       apply_no_radius="true"
       apply_with_radius="true"
       only_selected="false"
       hide_knots="false" />
    <inkscape:path-effect
       effect="fillet_chamfer"
       id="path-effect7-1-3-0"
       is_visible="true"
       lpeversion="1"
       nodesatellites_param="F,0,0,1,0,1.0583333,0,1 @ F,0,0,1,0,1.0583333,0,1 @ F,0,0,1,0,1.0583333,0,1 @ F,0,0,1,0,1.0583333,0,1 @ F,0,0,1,0,1.0583333,0,1 @ F,0,0,1,0,1.0583333,0,1"
       radius="4"
       unit="px"
       method="auto"
       mode="F"
       chamfer_steps="1"
       flexible="false"
       use_knot_distance="true"
       apply_no_radius="true"
       apply_with_radius="true"
       only_selected="false"
       hide_knots="false" />
  </defs>
  <g
     inkscape:label="Layer 1"
     inkscape:groupmode="layer"
     id="layer1"
     transform="translate(-33.805172,-64.944873)">
    <path
       d="m 52.503771,64.944873 c 0.221633,5.2e-5 0.442176,0.03101 0.655257,0.09198 0.2132,0.06083 0.416873,0.151097 0.605131,0.268201 0.18808,0.117312 0.35888,0.260282 0.507463,0.42478 l 4.561995,5.044653 c 0.04282,0.04722 0.0817,0.09786 0.116272,0.151412 0.03454,0.05378 0.06461,0.110294 0.08992,0.168982 0.02522,0.05853 0.04561,0.119019 0.06098,0.180868 0.01543,0.06175 0.02581,0.124662 0.03101,0.188102 0.0013,0.03185 0.0013,2.823304 0,2.855158 l 7.976258,-2.759558 c 0.0013,-0.03185 0.0013,-0.06375 0,-0.0956 -0.0054,-0.06345 -0.01591,-0.126363 -0.03152,-0.188102 -0.01537,-0.06185 -0.03576,-0.12234 -0.06098,-0.180868 -0.02531,-0.05869 -0.05538,-0.115204 -0.08992,-0.168982 -0.03457,-0.05355 -0.07346,-0.104192 -0.116272,-0.151412 l -4.561996,-5.044653 c -0.148583,-0.164498 -0.319382,-0.307468 -0.507462,-0.42478 -0.188258,-0.117104 -0.391931,-0.207374 -0.605131,-0.268201 -0.213081,-0.06097 -0.433624,-0.09193 -0.655257,-0.09198 z"
       style="fill:#87cdf5;stroke-width:1.029;stroke-miterlimit:1.8;paint-order:stroke markers fill"
       id="path13"
       sodipodi:nodetypes="ccccccccccccccccccccc" />
    <path
       d="m 45.056681,64.944873 c 0.221805,5e-6 0.442526,0.03096 0.655774,0.09198 0.213021,0.06087 0.416518,0.151141 0.604614,0.268201 0.188262,0.117272 0.359238,0.260245 0.507979,0.42478 l 4.561996,5.044653 c 0.04264,0.04724 0.08135,0.09788 0.115755,0.151412 0.03454,0.05378 0.06461,0.110294 0.08992,0.168982 0.02539,0.05851 0.04596,0.119004 0.0615,0.180868 0.01543,0.06175 0.0258,0.124663 0.03101,0.188102 0.0013,0.03185 0.0013,2.449131 0,2.480981 3.502216,-1.89057 4.362771,-0.935439 7.97574,-2.385381 0.0013,-0.03185 0.0013,-0.06375 0,-0.0956 -0.0052,-0.06344 -0.01557,-0.126349 -0.03101,-0.188102 -0.01537,-0.06185 -0.03576,-0.12234 -0.06098,-0.180868 -0.02531,-0.05869 -0.05538,-0.115204 -0.08992,-0.168982 -0.03457,-0.05355 -0.07346,-0.104192 -0.116272,-0.151412 l -4.561995,-5.044653 c -0.148583,-0.164497 -0.319383,-0.307469 -0.507463,-0.42478 -0.188257,-0.117104 -0.391931,-0.207375 -0.605131,-0.268201 -0.213081,-0.06097 -0.433624,-0.09193 -0.655257,-0.09198 h -0.873848 z"
       style="fill:#4aa3d7;stroke-width:1.029;stroke-miterlimit:1.8;paint-order:stroke markers fill"
       id="path12"
       sodipodi:nodetypes="cccccccccccccccccccccc" />
    <path
       d="m 37.610107,64.944873 c 0.221633,5.3e-5 0.442176,0.03101 0.655257,0.09198 0.2132,0.06083 0.416874,0.151097 0.605131,0.268201 0.188263,0.117272 0.359239,0.260245 0.50798,0.42478 l 4.561478,5.044653 c 0.04282,0.04722 0.0817,0.09786 0.116272,0.151412 0.03454,0.05378 0.06461,0.110294 0.08992,0.168982 0.02539,0.05851 0.04596,0.119004 0.0615,0.180868 0.01543,0.06175 0.0258,0.124663 0.03101,0.188102 0.0013,0.03185 0.0013,2.589447 0,2.621297 3.558,-2.002527 5.352978,-0.771741 7.975741,-2.525697 0.0013,-0.03185 0.0013,-0.06375 0,-0.0956 -0.0052,-0.06344 -0.01557,-0.126349 -0.03101,-0.188102 -0.01554,-0.06186 -0.0361,-0.122355 -0.0615,-0.180868 -0.02531,-0.05869 -0.05538,-0.115204 -0.08992,-0.168982 -0.0344,-0.05353 -0.07312,-0.104172 -0.115755,-0.151412 l -4.561996,-5.044653 c -0.148741,-0.164535 -0.319717,-0.307508 -0.507979,-0.42478 -0.188096,-0.11706 -0.391593,-0.20733 -0.604614,-0.268201 -0.213248,-0.06102 -0.433969,-0.09198 -0.655774,-0.09198 h -0.873332 z"
       style="fill:#2b89bf;stroke-width:1.029;stroke-miterlimit:1.8;paint-order:stroke markers fill"
       id="path11"
       sodipodi:nodetypes="cccccccccccccccccccscc" />
    <path
       d="m 33.805172,66.003206 v 7.006187 c 3.682856,-0.463793 7.473941,-0.116545 10.962638,-1.449937 0.0013,-0.03185 0.0013,-0.06375 0,-0.0956 -0.0052,-0.06344 -0.01557,-0.126349 -0.03101,-0.188102 -0.01553,-0.06186 -0.0361,-0.122355 -0.0615,-0.180868 -0.02531,-0.05869 -0.05538,-0.115204 -0.08992,-0.168982 -0.03457,-0.05355 -0.07346,-0.104192 -0.116272,-0.151412 L 39.90763,65.729839 c -0.148741,-0.164535 -0.319717,-0.307508 -0.50798,-0.42478 -0.188257,-0.117104 -0.391931,-0.207375 -0.605131,-0.268201 -0.213081,-0.06097 -0.433624,-0.09193 -0.655257,-0.09198 h -0.873848 l -2.401909,-3e-6 a 1.0583318,1.0583318 135.00004 0 0 -1.058333,1.058331 z"
       style="fill:#18587e;stroke-width:1.02932;stroke-miterlimit:1.8;paint-order:stroke markers fill"
       id="path10"
       sodipodi:nodetypes="cccccccccccccc"
       inkscape:path-effect="#path-effect21"
       inkscape:original-d="m 33.805172,64.944873 v 8.06452 c 3.682856,-0.463793 7.473941,-0.116545 10.962638,-1.449937 0.0013,-0.03185 0.0013,-0.06375 0,-0.0956 -0.0052,-0.06344 -0.01557,-0.126349 -0.03101,-0.188102 -0.01553,-0.06186 -0.0361,-0.122355 -0.0615,-0.180868 -0.02531,-0.05869 -0.05538,-0.115204 -0.08992,-0.168982 -0.03457,-0.05355 -0.07346,-0.104192 -0.116272,-0.151412 L 39.90763,65.729839 c -0.148741,-0.164535 -0.319717,-0.307508 -0.50798,-0.42478 -0.188257,-0.117104 -0.391931,-0.207375 -0.605131,-0.268201 -0.213081,-0.06097 -0.433624,-0.09193 -0.655257,-0.09198 h -0.873848 z" />
    <path
       d="M 67.108048,71.559456 H 59.13179 a 1.1703384,1.1703384 0 0 1 0,0.0956 1.1703384,1.1703384 0 0 1 -0.03101,0.188102 1.1703384,1.1703384 0 0 1 -0.06098,0.180868 1.1703384,1.1703384 0 0 1 -0.08992,0.168981 1.1703384,1.1703384 0 0 1 -0.116272,0.151412 l -4.561995,5.044654 a 2.3839353,2.3839353 0 0 1 -0.507463,0.42478 2.3839353,2.3839353 0 0 1 -0.605131,0.268201 2.3839353,2.3839353 0 0 1 -0.655257,0.09198 h 7.975741 a 2.3839353,2.3839353 0 0 0 0.655257,-0.09198 2.3839353,2.3839353 0 0 0 0.605131,-0.268201 2.3839353,2.3839353 0 0 0 0.507462,-0.42478 l 4.561996,-5.044654 a 1.1703384,1.1703384 0 0 0 0.116272,-0.151412 1.1703384,1.1703384 0 0 0 0.08992,-0.168981 1.1703384,1.1703384 0 0 0 0.06098,-0.180868 1.1703384,1.1703384 0 0 0 0.03152,-0.188102 1.1703384,1.1703384 0 0 0 0,-0.0956 z"
       style="fill:#58baf4;fill-opacity:1;stroke-width:1.029;stroke-miterlimit:1.8;paint-order:stroke markers fill"
       id="path14" />
    <path
       d="m 51.685217,71.559456 c 0.0013,0.03185 0.0013,0.06375 0,0.0956 -0.0052,0.06344 -0.01557,0.126349 -0.03101,0.188102 -0.01554,0.06186 -0.0361,0.122355 -0.0615,0.180868 -0.02531,0.05869 -0.05538,0.115204 -0.08992,0.168981 -0.0344,0.05353 -0.07312,0.104173 -0.115755,0.151412 l -4.561996,5.044654 c -0.148741,0.164535 -0.319717,0.307507 -0.507979,0.42478 -0.188096,0.11706 -0.391593,0.207329 -0.604614,0.268201 -0.213248,0.06102 -0.433969,0.09198 -0.655774,0.09198 h 7.102409 0.873848 c 0.221633,-5.3e-5 0.442176,-0.03101 0.655257,-0.09198 0.2132,-0.06083 0.416874,-0.151097 0.605131,-0.268201 0.18808,-0.117312 0.35888,-0.260283 0.507463,-0.42478 l 4.561995,-5.044654 c 0.04282,-0.04722 0.0817,-0.09786 0.116272,-0.151412 0.03454,-0.05378 0.06461,-0.110294 0.08992,-0.168981 0.02522,-0.05853 0.04561,-0.119019 0.06098,-0.180868 0.01543,-0.06175 0.0258,-0.124663 0.03101,-0.188102 0.0013,-0.03185 0.0013,-0.06375 0,-0.0956 h -2.989998 z"
       style="fill:#2b8cc5;fill-opacity:1;stroke-width:1.029;stroke-miterlimit:1.8;paint-order:stroke markers fill"
       id="path15" />
    <path
       d="m 44.238643,71.559456 c 0.0013,0.03185 0.0013,0.06375 0,0.0956 -0.0052,0.06344 -0.01557,0.126349 -0.03101,0.188102 -0.01553,0.06186 -0.0361,0.122355 -0.0615,0.180868 -0.02531,0.05869 -0.05538,0.115204 -0.08992,0.168981 -0.03457,0.05355 -0.07346,0.104192 -0.116272,0.151412 l -4.561478,5.044654 c -0.148741,0.164535 -0.319717,0.307507 -0.50798,0.42478 -0.188257,0.117104 -0.391931,0.207374 -0.605131,0.268201 -0.213081,0.06097 -0.433624,0.09193 -0.655257,0.09198 h 7.102409 0.873332 c 0.221805,-5e-6 0.442526,-0.03097 0.655774,-0.09198 0.213021,-0.06087 0.416518,-0.151141 0.604614,-0.268201 0.188262,-0.117273 0.359238,-0.260245 0.507979,-0.42478 l 4.561996,-5.044654 c 0.04264,-0.04724 0.08135,-0.09788 0.115755,-0.151412 0.03454,-0.05378 0.06461,-0.110294 0.08992,-0.168981 0.02539,-0.05851 0.04596,-0.119004 0.0615,-0.180868 0.01543,-0.06175 0.0258,-0.124663 0.03101,-0.188102 0.0013,-0.03185 0.0013,-0.06375 0,-0.0956 h -2.990516 z"
       style="fill:#216b96;fill-opacity:1;stroke-width:1.029;stroke-miterlimit:1.8;paint-order:stroke markers fill"
       id="path16" />
    <path
       d="m 33.805172,71.559456 v 5.556251 a 1.0583333,1.0583333 45 0 0 1.058333,1.058333 h 2.401921 0.873848 c 0.221633,-5.3e-5 0.442176,-0.03101 0.655257,-0.09198 0.2132,-0.06083 0.416874,-0.151097 0.605131,-0.268201 0.188263,-0.117273 0.359239,-0.260245 0.50798,-0.42478 l 4.561478,-5.044654 c 0.04282,-0.04722 0.0817,-0.09786 0.116272,-0.151412 0.03454,-0.05378 0.06461,-0.110294 0.08992,-0.168981 0.02539,-0.05851 0.04596,-0.119004 0.0615,-0.180868 0.01543,-0.06175 0.0258,-0.124663 0.03101,-0.188102 0.0013,-0.03185 0.0013,-0.06375 0,-0.0956 h -2.990515 z"
       style="fill:#103951;fill-opacity:1;stroke-width:1.02932;stroke-miterlimit:1.8;paint-order:stroke markers fill"
       id="path17"
       sodipodi:nodetypes="ccccccccccccccc"
       inkscape:path-effect="#path-effect23"
       inkscape:original-d="m 33.805172,71.559456 v 6.614584 h 3.460254 0.873848 c 0.221633,-5.3e-5 0.442176,-0.03101 0.655257,-0.09198 0.2132,-0.06083 0.416874,-0.151097 0.605131,-0.268201 0.188263,-0.117273 0.359239,-0.260245 0.50798,-0.42478 l 4.561478,-5.044654 c 0.04282,-0.04722 0.0817,-0.09786 0.116272,-0.151412 0.03454,-0.05378 0.06461,-0.110294 0.08992,-0.168981 0.02539,-0.05851 0.04596,-0.119004 0.0615,-0.180868 0.01543,-0.06175 0.0258,-0.124663 0.03101,-0.188102 0.0013,-0.03185 0.0013,-0.06375 0,-0.0956 h -2.990515 z" />
  </g>
</svg>
